<?xml version="1.0" encoding="UTF-8" standalone="no"?>
<!-- Created with Inkscape (http://www.inkscape.org/) -->
<svg
   xmlns:svg="http://www.w3.org/2000/svg"
   xmlns="http://www.w3.org/2000/svg"
   version="1.0"
   width="765"
   height="990"
   id="svg2226">
  <defs
     id="defs2229" />
  <g
     id="g2253">
    <path
       d="M 250.05635,898.88671 C 221.55,896.35638 201.535,888.98017 187.46726,875.82049 C 179.75213,868.60337 175.10863,861.28103 171.40404,850.4904 C 169.0226,843.55383 168.62852,840.71953 168.41605,829 C 168.17477,815.69207 168.13806,815.49548 165.83564,815.18242 C 127.24197,809.93484 105.51908,793.99354 97.862481,765.30048 C 96.213743,759.12184 95.751755,754.21154 95.640481,741.68366 L 95.5,725.86733 L 86.154357,722.01174 C 59.401269,710.97463 45.039408,692.83058 42.03032,666.26765 C 40.27992,650.81588 43.137788,636.92843 51.396953,620.75168 L 55.863475,612.00337 L 51.352468,606.75168 C 39.954816,593.48261 29.075539,573.56827 24.537781,557.66782 C 20.956366,545.11842 20.01616,538.19644 20.007554,524.31538 C 19.990094,496.15336 29.016114,475.69315 50.530949,455.12483 C 79.953144,426.99703 124.7952,409.19922 185.5,401.55561 C 198.14956,399.96285 233.06064,398.00405 248.84384,398.00151 L 258.18768,398 L 257.51065,392.75 C 255.94163,380.58294 249.63569,354.19326 244.46827,338.16905 C 235.97149,311.8205 227.09885,291.50974 214.689,270 C 198.55736,242.03937 183.54489,205.896 177.3067,180 C 174.79253,169.56315 174.78782,139.27852 177.29843,126.79019 C 182.61702,100.33439 195.32227,77.657104 213.77731,61.679939 C 232.16394,45.762002 254.29364,35.616736 289.39188,27.014762 C 300.07604,24.396258 302.50845,24.081645 303.59585,25.177592 C 304.3175,25.904917 312.35627,59.575 321.45979,100 C 330.56331,140.425 338.40423,174.4 338.88407,175.5 C 339.3639,176.6 367.30589,206.75 400.97737,242.5 C 467.00797,312.60662 471.31164,317.62378 515.49213,376 C 557.44076,431.42725 566.87786,442.34687 577.19269,447.39345 C 587.52631,452.44922 594.04254,453 643.52287,453 C 668.46368,453 689.91669,453.39803 691.19623,453.88451 C 695.7705,455.62364 711.62014,497.38278 718.9627,527.04101 C 727.41277,561.17271 730.49151,589.00402 729.68845,624 C 728.94227,656.51724 725.57149,682.18722 717.87043,713.99958 C 714.59273,727.53944 702.78778,763.95268 698.6618,773.25 L 696.11006,779 L 645.43738,779 L 594.76471,779 L 591.13235,782.75834 C 589.13456,784.82543 582.67831,791.74194 576.78513,798.12837 C 542.12718,835.68718 492.68994,872.88759 450.64065,893.04927 L 440.5,897.91148 L 420,899.03141 C 408.725,899.64737 396.35,899.87545 392.5,899.53825 C 371.23479,897.67579 355.13524,895.07516 335.21569,890.28489 L 323.93138,887.57123 L 311.45551,893.78561 L 298.97965,900 L 279.23982,899.86248 C 268.38292,899.78684 255.25036,899.34775 250.05635,898.88671 z "
       style="fill:#33B5E5"
       id="path2267" />
    <path
       d="M 253.5,898.95315 C 207.74641,895.82232 181.29229,879.90696 171.30021,849.5 C 169.0328,842.60005 168.65953,839.70252 168.58566,828.42804 L 168.5,815.35607 L 158.26859,813.62479 C 137.89762,810.17776 125.27813,804.3193 113.91392,793.03365 C 100.82748,780.03766 95.834329,766.1379 95.94056,743 C 95.974649,735.575 96.114469,728.67579 96.25127,727.66842 C 96.441433,726.26811 95.085668,725.29971 90.493435,723.5557 C 57.950842,711.19688 42,689.79824 42,658.5 C 42,645.40098 44.435042,635.62116 51.025176,622.2523 L 56.076746,612.00461 L 50.862374,605.7523 C 35.2197,586.99593 25.191554,565.81776 21.427879,543.59041 C 19.234857,530.63895 19.885876,510.90069 22.876704,499.6635 C 34.8787,454.56939 87.126023,418.94822 161,405.49381 C 182.89691,401.5058 197.77807,400.04051 228.5,398.84733 C 244.45,398.22786 257.6863,397.56 257.91401,397.36318 C 258.80547,396.59262 254.62569,374.64457 250.51292,358.5 C 243.26526,330.04958 233.70513,305.21519 220.4864,280.5 C 186.60366,217.14914 175.01214,185.07041 175.00319,154.62834 C 174.99691,133.25105 179.5423,112.60713 188.02209,95.5 C 199.35801,72.630899 218.10405,54.735303 243.5,42.538927 C 255.79451,36.634504 264.25844,33.732022 284.75594,28.391295 C 299.2855,24.605546 302.4746,24.057465 303.5266,25.165356 C 304.22363,25.89941 312.37779,60.224535 321.64696,101.44341 L 338.5,176.38682 L 402,243.96552 C 469.73939,316.05591 470.79697,317.29015 515.99374,377 C 565.88053,442.90588 570.04523,447.12548 589.66521,451.64253 C 595.12434,452.89937 606.16112,453.3453 644.5,453.85804 L 692.5,454.5 L 695.70522,461 C 706.23932,482.36254 717.6237,517.98155 723.35739,547.51711 C 736.73797,616.44347 729.04118,693.64533 701.67501,765 L 696.49745,778.5 L 645.72277,778.75918 L 594.94809,779.01836 L 570.22405,803.8741 C 556.62582,817.54476 540.325,832.9858 534,838.18752 C 505.50309,861.62354 478.06502,879.4935 450,892.89531 L 439.5,897.90935 L 419.5,898.85504 C 389.16908,900.28922 364.69,897.65579 333.19332,889.57027 L 323.88663,887.18115 L 310.89205,893.59057 L 297.89747,900 L 281.19874,899.85293 C 272.01443,899.77204 259.55,899.36714 253.5,898.95315 z M 441.07339,862.20301 C 490.26528,832.94174 534.62771,794.41612 571.76278,748.70852 L 578.02556,741 L 624.56381,741 L 671.10205,741 L 672.53644,737.56703 C 678.5074,723.27651 688.01823,680.25532 690.56872,656 C 692.60656,636.62003 692.081,595.94762 689.54789,577 C 686.33511,552.96836 678.36841,518.43388 671.7513,499.85438 L 669.48819,493.5 L 642.99409,492.84805 C 608.39111,491.99656 590.3105,490.31659 573,486.3445 C 560.6738,483.51611 550.94839,477.05406 537.26976,462.60353 C 526.24586,450.95754 520.79753,444.16198 495.89673,411 C 453.59239,354.66063 448.63531,348.89955 374.88525,270.36153 C 337.11143,230.13537 305.95028,196.38537 305.63826,195.36153 C 305.32624,194.33769 299.85582,169.2 293.48177,139.5 C 278.4968,69.677295 279.04237,72 277.62704,72 C 275.08262,72 252.15096,84.035488 246.26475,88.460234 C 236.06535,96.127259 227.47253,106.21402 222.45364,116.41111 C 211.18913,139.29773 210.21206,164.59194 219.5091,192.63852 C 223.60468,204.99371 229.49659,216.87079 244.08187,242.17301 C 273.43376,293.09198 287.99199,329.97626 294.9299,371 C 297.26165,384.78765 299.30934,414.02976 298.8163,426.5 L 298.5,434.5 L 262,435.12244 C 223.71759,435.77529 206.66748,436.81868 181,440.07931 C 146.34961,444.48108 120.03492,451.39406 99.5,461.4897 C 69.633034,476.17329 57,493.93758 57,521.25226 C 57,545.50478 65.742561,566.40046 83.271108,584.04308 C 96.423104,597.28066 111.93221,605.98145 129.75195,610.11935 C 136.98394,611.79869 143.2801,612.24632 166.08238,612.70232 L 193.66477,613.2539 L 254.33238,585.92716 C 287.69957,570.89745 314.99595,558.12783 314.991,557.55021 C 314.97534,555.72148 302.71142,542.0383 296.48501,536.90257 C 280.95882,524.09613 257.60492,516.77436 237.71434,518.47715 C 223.79304,519.66893 202.79754,525.7223 177.16214,535.93541 C 167.31463,539.85864 166.90839,539.92924 150.30463,540.60326 L 133.44586,541.28762 L 117.72293,524.56252 C 108.69996,514.96443 102,507.0198 102,505.91871 C 102,504.10471 102.94139,503.99511 119.25,503.91049 C 128.7375,503.86125 141.675,503.47861 148,503.06017 C 158.43418,502.36988 160.76361,501.82458 173.13407,497.17656 C 198.48253,487.65223 217.15459,483.90546 239.11956,483.93578 C 286.49558,484.00119 322.78532,503.33317 349.91432,542.95747 C 357.95211,554.69738 366.22004,570.42506 365.82341,573.22057 C 365.57077,575.00122 363.47593,576.46825 356.25,579.92489 C 351.1625,582.35858 347.00882,584.60858 347.01959,584.92489 C 347.03037,585.2412 350.96787,587.9472 355.76959,590.93822 C 367.36181,598.15906 385.37956,616.1201 393.90422,628.9528 C 401.65522,640.62088 409.21839,655.4899 408.80724,658.25182 C 408.57206,659.83159 405.97361,661.39279 397.72903,664.90784 C 391.80499,667.43353 386.85499,669.81693 386.72903,670.20428 C 386.60306,670.59163 389.65,673.48776 393.5,676.64012 C 407.9099,688.43885 421.71109,704.93311 434.883,726.09829 C 439.76444,733.942 441.03308,736.72471 440.27588,737.92738 C 439.73132,738.79232 431.07001,743.41396 421.02852,748.19769 C 410.98704,752.98142 402.58393,757.08274 402.35494,757.31173 C 402.12595,757.54072 408.15982,763.97675 415.76354,771.61404 C 430.87092,786.78809 441.1922,800.96516 450.46853,819.28398 C 454.73499,827.70936 455.20583,829.20685 453.951,830.36 C 453.15295,831.09339 435.5125,839.25873 414.75,848.50521 C 393.9875,857.75168 377,865.64304 377,866.04155 C 377,867.52855 391.10871,868.73266 410.07339,868.86422 L 429.64678,869 L 441.07339,862.20301 z M 346,840.10641 C 375.425,826.78167 399.89068,815.49351 400.36817,815.02163 C 402.45868,812.95569 373.23571,780.14003 365.72674,776.12135 C 363.37376,774.86207 360.11194,776.15918 314.76262,796.38798 L 266.31237,818 L 235.65618,818 L 205,818 L 205,822.2899 C 205,824.64935 205.69742,829.2574 206.54983,832.53001 C 212.51997,855.45092 235.57536,865.43885 280.5,864.5663 L 292.5,864.33323 L 346,840.10641 z M 320.52999,752.46643 C 354.47603,737.32296 383.37026,724.34592 384.73939,723.62856 L 387.22871,722.32428 L 382.53487,716.91214 C 376.67945,710.16065 372.41047,706.28131 363.5,699.6146 C 355.8456,693.88766 347.51433,689 345.40689,689 C 344.66923,689 321.2364,699.125 293.33394,711.5 L 242.6022,734 L 187.36012,734 C 154.94108,734 131.88387,734.37888 131.55125,734.91707 C 129.94595,737.5145 129.88913,745.10678 131.43518,750.42503 C 135.15795,763.23088 148.33318,772.16987 169.93709,776.54738 C 182.32914,779.05833 193.54342,779.70147 227.65495,779.8575 L 258.80991,780 L 320.52999,752.46643 z M 296.45445,670.38666 C 329.97939,655.47432 357.56464,642.80607 357.755,642.23501 C 358.29722,640.60834 340.19815,622.82024 333.20573,618.10753 C 324.84285,612.47116 311.10215,605.949 306.33537,605.35324 C 302.98108,604.93401 296.20499,607.70403 252.31361,627.43694 L 202.12721,650 L 179.20882,650 C 136.67861,650 108.38733,645.97422 92.241148,637.6247 C 90.513143,636.73112 88.82833,636 88.497121,636 C 88.165911,636 86.471707,639.0375 84.732223,642.75 C 74.979453,663.56488 84.716184,682.47312 109.59528,691.03278 C 125.63627,696.55169 141.50722,697.77558 195,697.61874 L 235.5,697.5 L 296.45445,670.38666 z "
       style="fill:#2da2ce"
       id="path2265" />
    <path
       d="M 246.5,898.3405 C 202.67412,893.08386 178.57232,876.50915 170.39,846 C 169.19793,841.55514 168.63688,835.6644 168.61552,827.36874 L 168.58429,815.23749 L 158.54215,813.57537 C 146.51186,811.58419 134.07619,807.46117 126.23879,802.86526 C 117.63691,797.82106 107.12838,786.79989 103.23448,778.73872 C 97.511696,766.89138 96.633618,762.27926 96.430366,743 L 96.245872,725.5 L 89.372936,722.94754 C 76.869751,718.30414 69.913101,713.92391 60.881534,705.00805 C 54.080323,698.29397 51.51633,694.91858 48.721609,689 C 43.456939,677.85064 41.620085,668.05299 42.27295,654.60334 C 42.895423,641.77979 45.640842,632.18681 52.232964,619.80128 L 56.330562,612.10255 L 51.747221,606.7377 C 20.457353,570.11252 11.143228,519.40925 29.145981,483.70341 C 44.190621,453.86456 77.514564,429.58105 123.43425,414.99454 C 155.55181,404.79232 186.50676,400.19133 230,399.15516 L 257.5,398.5 L 257.30012,392.68779 C 256.86118,379.92368 249.33365,349.7722 240.47877,325.30991 C 233.14,305.03603 225.61973,288.49947 216.02025,271.52732 C 200.98208,244.93941 187.15418,213.64757 181.08068,192.46083 C 176.04958,174.91042 174.63644,164.41038 175.29955,149.50542 C 177.49436,100.17208 198.51439,66.170526 240.1978,44.527372 C 245.86401,41.585323 254.55,37.745571 259.5,35.994589 C 270.44727,32.122172 301.02381,24.161149 302.73231,24.738464 C 304.35136,25.285557 303.53214,21.92525 322.05573,104 C 330.93106,143.325 338.48684,176.00053 338.84635,176.6123 C 339.20586,177.22406 367.53502,207.53671 401.80005,243.97375 C 436.06507,280.41079 468.48934,315.68525 473.85398,322.36145 C 479.21861,329.03765 497.06022,352.275 513.50199,374 C 556.74278,431.13533 566.98744,442.95351 577.59843,447.94126 C 588.1061,452.88045 592.26649,453.24458 643.70164,453.72671 C 679.51026,454.06237 692.15944,454.48719 692.89959,455.37902 C 694.76483,457.62648 703.90829,479.95459 709.0023,494.7014 C 736.40893,574.04178 736.54169,657.65003 709.39521,742.14084 C 703.3925,760.8237 697.12134,777.30146 695.65975,778.23145 C 695.02189,778.63731 672.08562,778.97627 644.69026,778.98469 L 594.88051,779 L 570.69026,803.35418 C 529.18418,845.14153 495.86322,870.0407 452.14572,891.93689 C 442.28959,896.8734 441.25521,897.16727 430.64572,898.04518 C 397.9338,900.752 369.09812,898.28284 335.75937,889.9202 L 324.01873,886.97519 L 312.02474,892.9876 L 300.03075,899 L 274.76538,898.85017 C 260.86942,898.76776 248.15,898.53841 246.5,898.3405 z M 442.10021,862.5892 C 492.12778,832.2614 536.09378,794.03072 571.86738,749.75 L 578.12847,742 L 624.44179,742 C 660.28605,742 670.98387,741.71744 671.76711,740.75 C 674.92309,736.8518 684.53318,700.13319 688.3859,677.25229 C 697.92615,620.5937 692.168,557.16448 672.20404,499 C 670.32047,493.51227 670.3053,493.49852 665.40813,492.83761 C 662.70866,492.47329 653.075,492.13396 644,492.08354 C 613.8689,491.91613 582.86487,488.78252 569.40238,484.54387 C 551.23444,478.82372 536.98516,464.43811 498.04129,412.5 C 454.5778,354.53422 449.60173,348.73652 376.78651,271.22388 C 339.66444,231.70703 308.57626,198.27816 307.70165,196.93753 C 306.82705,195.59689 300.21069,167.05 292.99864,133.5 C 285.78658,99.95 279.53077,72.141765 279.09683,71.703922 C 278.20417,70.803237 271.01172,73.458998 261.75178,78.108463 C 243.55601,87.244652 229.18797,100.89568 221.68066,116.1799 C 216.30802,127.11813 214.28298,134.46511 213.0507,147.48997 C 211.05679,168.56515 215.98041,191.12515 227.61685,214.23204 C 229.50236,217.97615 237.07159,231.53941 244.43738,244.37262 C 259.58345,270.7612 264.16894,279.59495 271.2365,296 C 285.76362,329.72001 294.32951,362.2333 296.92367,393.5 C 297.76198,403.60389 298.53897,428.9191 298.1235,432.59167 C 298.03833,433.3445 286.90355,433.88271 262.25,434.32565 C 218.73014,435.10756 195.94624,436.74917 168,441.1165 C 101.4518,451.51639 65.369611,472.89443 57.40179,506.64391 C 55.370262,515.2489 56.054743,533.24682 58.804312,543.52218 C 66.367366,571.78592 87.709148,595.49328 115.48702,606.48775 C 128.01708,611.44714 137.38283,612.73403 166.63798,613.51609 L 193.5,614.23418 L 254.45245,586.75973 C 287.9763,571.64878 315.58023,558.75932 315.79451,558.11648 C 316.39892,556.30325 305.30549,543.35574 297.51289,536.77938 C 289.73046,530.21162 275.69561,522.83179 266.5,520.47213 C 242.85435,514.40449 222.14742,517.63559 180.05326,533.96123 L 166.60652,539.17637 L 151.05326,539.94392 C 142.49897,540.36607 134.92975,540.50027 134.23277,540.24214 C 132.34977,539.54474 103,507.78715 103,506.44707 C 103,504.86868 115.35574,504.01331 138.2611,504.00599 L 157.0222,504 L 169.7611,499.13625 C 184.50647,493.50642 196.22371,490.02993 211,486.90071 C 224.72492,483.99414 249.69336,483.7479 264,486.37803 C 306.86491,494.2583 339.73353,520.79183 362.40935,565.82 C 364.42098,569.81455 365.78859,573.53305 365.44849,574.08334 C 365.1084,574.63363 360.36835,577.15475 354.91507,579.68583 C 346.23112,583.71639 342.96728,586 345.89056,586 C 346.38037,586 350.99287,588.7643 356.14056,592.14288 C 368.77658,600.43628 384.5682,616.3916 393.52975,629.91967 C 401.50906,641.96498 409.10207,656.57043 408.37281,658.47087 C 408.09656,659.19075 402.72467,661.94517 396.43527,664.59182 C 390.14587,667.23847 385,669.891 385,670.48634 C 385,671.08169 386.40205,672.397 388.11566,673.40925 C 393.5907,676.64344 411.67543,694.85597 419.32597,704.84013 C 429.79329,718.50026 440.47404,736.0306 439.37458,737.74595 C 438.89356,738.49641 429.82604,743.20594 419.22454,748.21157 L 399.94908,757.3127 L 411.02055,767.78478 C 421.83304,778.01191 430.44117,788.19609 438.83906,800.69657 C 445.00269,809.87129 454.11571,827.53688 453.50204,829.12078 C 453.20814,829.87935 435.42495,838.33753 413.98384,847.91673 C 392.54273,857.49593 375,865.68804 375,866.12142 C 375,866.55479 376.4625,867.17019 378.25,867.48896 C 388.95759,869.39851 395.42169,869.81417 412.10021,869.66564 L 430.70041,869.5 L 442.10021,862.5892 z M 347.22739,840.31592 C 377.35233,826.73968 402,815.22739 402,814.73307 C 402,814.23874 398.17336,808.95677 393.49635,802.99535 C 385.36181,792.62688 370.34696,777.59401 365.57423,775.03973 C 363.56035,773.96193 358.08303,776.16685 314.95769,795.41558 L 266.59939,817 L 235.76831,817 C 208.16101,817 204.87166,817.17086 204.31017,818.63409 C 203.96529,819.53283 204.20684,823.63689 204.84694,827.75422 C 208.05451,848.3861 222.36368,859.89523 249.81396,863.92201 C 252.94128,864.38077 263.81483,864.81099 273.97739,864.87806 L 292.45479,865 L 347.22739,840.31592 z M 323.5,752.19856 C 358.15,736.63277 386.85938,723.53838 387.29863,723.09993 C 389.49436,720.90816 372.00672,703.90675 358.40743,695.01201 C 344.9867,686.23408 352.10669,684.51709 293.71266,710.61321 L 242.5,733.5 L 187.45494,733.1506 C 136.61274,732.82787 132.30216,732.93099 130.99906,734.50113 C 129.01489,736.89191 129.2738,748.46483 131.42083,753.35336 C 133.90286,759.00465 141.6731,766.80716 147.98375,769.98506 C 165.23824,778.67402 182.69627,780.84508 233.5,780.61975 L 260.5,780.5 L 323.5,752.19856 z M 296,671.36042 C 329.275,656.69145 357.12925,644.11409 357.89834,643.41073 C 359.078,642.33188 358.63321,641.33947 355.05396,637.06445 C 342.62037,622.21389 323.03524,608.83234 307.9564,604.88502 L 303.41281,603.6956 L 252.62732,626.45771 L 201.84182,649.21983 L 169.67091,648.72875 C 136.39707,648.22083 126.25905,647.25032 109.78137,642.99558 C 105.53612,641.8994 99.517631,639.87696 96.40694,638.50126 C 87.980243,634.77458 87.380415,634.9751 83.697461,642.75 C 80.860302,648.73938 80.505401,650.45781 80.547935,658 C 80.588229,665.14522 81.010632,667.30008 83.198131,671.5198 C 88.439222,681.62995 99.370669,689.1945 114.85375,693.42545 C 128.43126,697.13569 139.10439,697.79043 188,697.9126 L 235.5,698.03129 L 296,671.36042 z "
       style="fill:#2890b7"
       id="path2263" />
    <path
       d="M 252.93218,897.94992 C 213.29883,895.09731 187.05566,881.73825 176.21334,858.89629 C 170.68661,847.25291 169.65396,842.43509 169.49944,827.57274 L 169.36504,814.64548 L 159.38207,812.97068 C 138.92747,809.53909 125.28207,803.32052 114.49759,792.51565 C 101.54403,779.53759 96.950378,766.17029 96.672562,740.64573 L 96.5,724.79146 L 90.191414,722.41947 C 77.357343,717.59394 69.795043,712.88919 61.463476,704.54688 C 48.221623,691.28796 42.95338,678.05803 42.928202,658 C 42.912079,645.15603 45.819934,634.0387 52.659069,620.79688 L 57.217726,611.97048 L 52.749273,606.73524 C 31.794828,582.18501 21,554.16596 21,524.32685 C 21,483.37937 43.372885,452.77122 90.5,429.24451 C 127.83062,410.60838 167.46188,402.1636 228.75,399.78567 C 258.5865,398.62804 259,398.58286 259,396.48089 C 259,392.7029 254.98071,371.84284 251.89169,359.58885 C 244.25645,329.30021 231.13289,296.23654 217.12613,272 C 202.02602,245.8716 185.9352,208.48424 179.68295,185 C 176.79283,174.14435 176.61829,172.43542 176.56774,154.5 C 176.50861,133.52069 178.20067,122.72792 184.07041,106.64446 C 195.72381,74.71338 221.77306,50.426949 258.75538,37.013616 C 269.6042,33.078794 300.69998,24.947643 302.40171,25.600657 C 303.16397,25.893161 310.25776,55.409837 320.47236,100.7911 C 329.72104,141.88099 337.56081,176.00187 337.89407,176.61527 C 338.22733,177.22867 366.54408,207.55256 400.82018,244.00169 C 435.09628,280.45082 467.52766,315.72395 472.88991,322.38642 C 478.25217,329.04889 495.41225,351.375 511.02343,372 C 556.62569,432.24828 565.64471,442.73645 576.38748,448.01146 C 588.0721,453.74894 591.95155,454.13861 644.47218,454.85011 L 692.44436,455.5 L 696.82821,465.5 C 734.37676,551.15192 738.91623,642.42045 710.33194,737 C 706.3849,750.05994 697.296,774.86958 695.76971,776.75 C 694.98256,777.71978 683.55497,778 644.79334,778 L 594.83158,778 L 570.66579,802.36171 C 528.18653,845.18536 492.59751,871.5889 450,891.88384 L 439.5,896.8864 L 420,897.92338 C 391.14617,899.45778 366.80402,896.9735 336.81878,889.43419 C 331.49411,888.09539 325.97469,887 324.5534,887 C 323.13212,887 316.58309,889.7 310,893 L 298.03075,899 L 280.76538,898.85527 C 271.26942,898.77567 258.74448,898.36826 252.93218,897.94992 z M 442.10021,862.5892 C 492.12778,832.2614 536.09378,794.03072 571.86738,749.75 L 578.12847,742 L 624.44179,742 C 660.28605,742 670.98387,741.71744 671.76711,740.75 C 674.92309,736.8518 684.53318,700.13319 688.3859,677.25229 C 697.92615,620.5937 692.168,557.16448 672.20404,499 C 670.32047,493.51227 670.3053,493.49852 665.40813,492.83761 C 662.70866,492.47329 653.075,492.13396 644,492.08354 C 613.8689,491.91613 582.86487,488.78252 569.40238,484.54387 C 551.23444,478.82372 536.98516,464.43811 498.04129,412.5 C 454.5778,354.53422 449.60173,348.73652 376.78651,271.22388 C 339.66444,231.70703 308.57626,198.27816 307.70165,196.93753 C 306.82705,195.59689 300.21069,167.05 292.99864,133.5 C 285.78658,99.95 279.53077,72.141765 279.09683,71.703922 C 278.20417,70.803237 271.01172,73.458998 261.75178,78.108463 C 243.55601,87.244652 229.18797,100.89568 221.68066,116.1799 C 216.30802,127.11813 214.28298,134.46511 213.0507,147.48997 C 211.05679,168.56515 215.98041,191.12515 227.61685,214.23204 C 229.50236,217.97615 237.07159,231.53941 244.43738,244.37262 C 259.58345,270.7612 264.16894,279.59495 271.2365,296 C 285.76362,329.72001 294.32951,362.2333 296.92367,393.5 C 297.76198,403.60389 298.53897,428.9191 298.1235,432.59167 C 298.03833,433.3445 286.90355,433.88271 262.25,434.32565 C 218.73014,435.10756 195.94624,436.74917 168,441.1165 C 101.4518,451.51639 65.369611,472.89443 57.40179,506.64391 C 55.370262,515.2489 56.054743,533.24682 58.804312,543.52218 C 66.367366,571.78592 87.709148,595.49328 115.48702,606.48775 C 128.01708,611.44714 137.38283,612.73403 166.63798,613.51609 L 193.5,614.23418 L 254.45245,586.75973 C 287.9763,571.64878 315.58023,558.75932 315.79451,558.11648 C 316.39892,556.30325 305.30549,543.35574 297.51289,536.77938 C 289.73046,530.21162 275.69561,522.83179 266.5,520.47213 C 242.85435,514.40449 222.14742,517.63559 180.05326,533.96123 L 166.60652,539.17637 L 151.05326,539.94392 C 142.49897,540.36607 134.92975,540.50027 134.23277,540.24214 C 132.34977,539.54474 103,507.78715 103,506.44707 C 103,504.86868 115.35574,504.01331 138.2611,504.00599 L 157.0222,504 L 169.7611,499.13625 C 184.50647,493.50642 196.22371,490.02993 211,486.90071 C 224.72492,483.99414 249.69336,483.7479 264,486.37803 C 306.86491,494.2583 339.73353,520.79183 362.40935,565.82 C 364.42098,569.81455 365.78859,573.53305 365.44849,574.08334 C 365.1084,574.63363 360.36835,577.15475 354.91507,579.68583 C 346.23112,583.71639 342.96728,586 345.89056,586 C 346.38037,586 350.99287,588.7643 356.14056,592.14288 C 368.77658,600.43628 384.5682,616.3916 393.52975,629.91967 C 401.50906,641.96498 409.10207,656.57043 408.37281,658.47087 C 408.09656,659.19075 402.72467,661.94517 396.43527,664.59182 C 390.14587,667.23847 385,669.891 385,670.48634 C 385,671.08169 386.40205,672.397 388.11566,673.40925 C 393.5907,676.64344 411.67543,694.85597 419.32597,704.84013 C 429.79329,718.50026 440.47404,736.0306 439.37458,737.74595 C 438.89356,738.49641 429.82604,743.20594 419.22454,748.21157 L 399.94908,757.3127 L 411.02055,767.78478 C 421.83304,778.01191 430.44117,788.19609 438.83906,800.69657 C 445.00269,809.87129 454.11571,827.53688 453.50204,829.12078 C 453.20814,829.87935 435.42495,838.33753 413.98384,847.91673 C 392.54273,857.49593 375,865.68804 375,866.12142 C 375,866.55479 376.4625,867.17019 378.25,867.48896 C 388.95759,869.39851 395.42169,869.81417 412.10021,869.66564 L 430.70041,869.5 L 442.10021,862.5892 z M 347.22739,840.31592 C 377.35233,826.73968 402,815.22739 402,814.73307 C 402,814.23874 398.17336,808.95677 393.49635,802.99535 C 385.36181,792.62688 370.34696,777.59401 365.57423,775.03973 C 363.56035,773.96193 358.08303,776.16685 314.95769,795.41558 L 266.59939,817 L 235.76831,817 C 208.16101,817 204.87166,817.17086 204.31017,818.63409 C 203.96529,819.53283 204.20684,823.63689 204.84694,827.75422 C 208.05451,848.3861 222.36368,859.89523 249.81396,863.92201 C 252.94128,864.38077 263.81483,864.81099 273.97739,864.87806 L 292.45479,865 L 347.22739,840.31592 z M 323.5,752.19856 C 358.15,736.63277 386.85938,723.53838 387.29863,723.09993 C 389.49436,720.90816 372.00672,703.90675 358.40743,695.01201 C 344.9867,686.23408 352.10669,684.51709 293.71266,710.61321 L 242.5,733.5 L 187.45494,733.1506 C 136.61274,732.82787 132.30216,732.93099 130.99906,734.50113 C 129.01489,736.89191 129.2738,748.46483 131.42083,753.35336 C 133.90286,759.00465 141.6731,766.80716 147.98375,769.98506 C 165.23824,778.67402 182.69627,780.84508 233.5,780.61975 L 260.5,780.5 L 323.5,752.19856 z M 296,671.36042 C 329.275,656.69145 357.12925,644.11409 357.89834,643.41073 C 359.078,642.33188 358.63321,641.33947 355.05396,637.06445 C 342.62037,622.21389 323.03524,608.83234 307.9564,604.88502 L 303.41281,603.6956 L 252.62732,626.45771 L 201.84182,649.21983 L 169.67091,648.72875 C 136.39707,648.22083 126.25905,647.25032 109.78137,642.99558 C 105.53612,641.8994 99.517631,639.87696 96.40694,638.50126 C 87.980243,634.77458 87.380415,634.9751 83.697461,642.75 C 80.860302,648.73938 80.505401,650.45781 80.547935,658 C 80.588229,665.14522 81.010632,667.30008 83.198131,671.5198 C 88.439222,681.62995 99.370669,689.1945 114.85375,693.42545 C 128.43126,697.13569 139.10439,697.79043 188,697.9126 L 235.5,698.03129 L 296,671.36042 z "
       style="fill:#237ea0"
       id="path2261" />
    <path
       d="M 254,897.96558 C 207.40187,894.98445 180.10607,877.98464 171.36412,846.5 C 170.26462,842.54009 169.64152,836.09571 169.53154,827.54678 L 169.3649,814.59357 L 159.83468,812.912 C 138.01363,809.06175 125.21572,803.3304 114.58868,792.64922 C 102.0137,780.01019 96.923758,765.80464 96.887795,743.24773 C 96.876174,735.95898 97.131827,729.16001 97.455911,728.13891 C 98.178072,725.86359 96.932396,724.86107 90.5,722.54083 C 78.652147,718.26718 69.616411,712.6622 61.453692,704.52306 C 48.306277,691.41363 43,678.1799 43,658.5 C 43,645.38512 45.43574,635.61958 52.056884,622.18852 L 57.140161,611.87703 L 53.320081,607.34254 C 36.398854,587.25678 26.115482,565.88283 22.367988,543.00872 C 20.446296,531.27902 21.015852,510.55269 23.52238,501 C 30.932815,472.7579 53.043546,448.35017 86.807619,431.1403 C 115.71816,416.40432 144.61714,407.99842 183.58338,402.99095 C 197.01723,401.26459 235.94366,399.02185 252.75,399.00592 C 260.09101,398.99897 259.90415,399.53745 257.47791,385.38099 C 251.12887,348.33606 234.61517,301.5339 217.92009,273.26852 C 205.95571,253.01241 191.5485,221.65947 184.49911,200.53786 C 177.66244,180.05363 175.62618,167.50965 176.29532,150 C 177.86683,108.87708 192.25058,79.000702 220.83788,57.480931 C 237.17442,45.183219 255.87482,36.925629 284.02373,29.579783 C 297.84698,25.972413 301.7122,25.285766 302.68322,26.264968 C 303.35682,26.944236 311.35732,60.575 320.46212,101 C 329.56691,141.425 337.35013,175.24716 337.75815,176.16035 C 338.16617,177.07354 366.57685,207.67354 400.893,244.16035 C 435.20915,280.64716 467.63341,315.9 472.94693,322.5 C 478.26044,329.1 496.06223,352.275 512.50645,374 C 564.68072,442.92913 569.76673,448.14658 589.05551,452.52732 C 595.28459,453.94203 604.31064,454.29978 644.34096,454.71856 L 692.18193,455.21905 L 695.18907,461.85953 C 700.37126,473.30305 707.52093,492.04072 711.26845,504 C 734.81679,579.14855 734.85582,652.31966 711.3906,732.96682 C 706.88038,748.46792 697.61453,774.40496 695.74934,776.75 C 694.97758,777.7203 683.48248,778 644.37654,778 L 593.99797,778 L 587.82848,784.75 C 575.43876,798.3055 546.15674,826.74532 534.97525,836.08308 C 506.62582,859.75792 478.03326,878.53282 450,891.88085 L 439.5,896.88042 L 419.5,897.79584 C 408.5,898.29932 397.025,898.54274 394,898.33676 C 374.4005,897.00223 352.07895,893.4185 333.23569,888.58105 L 323.97138,886.20271 L 310.79122,892.60136 L 297.61107,899 L 281.55554,898.85065 C 272.72499,898.7685 260.325,898.37022 254,897.96558 z M 440,864.23111 C 452.55234,856.86413 470.9009,844.61211 484.5,834.51677 C 520.06841,808.11245 546.77791,781.90415 577.7669,743 C 577.98595,742.725 599.39051,742.275 625.33259,742 L 672.5,741.5 L 675.25147,733.29591 C 679.25393,721.36169 685.61025,696.2635 687.98931,683 C 694.64436,645.8975 694.98501,603.00908 688.92654,565 C 685.31507,542.34263 676.62214,507.63377 671.45747,495.25 L 670.10205,492 L 654.01238,492 C 621.2168,492 582.97438,488.39797 568.58547,483.95368 C 553.79945,479.38675 534.56608,460.67153 507.9996,425 C 452.73288,350.79188 451.77905,349.70112 320.33133,210.39029 L 307.01801,196.28057 L 294.02353,135.89029 C 286.87657,102.67563 280.77591,74.435571 280.46651,73.134603 C 279.97714,71.076856 279.48751,70.850113 276.70199,71.391269 C 272.21472,72.263028 256.20229,80.10902 249.18475,84.874541 C 231.44827,96.919151 220.38209,112.2746 214.86258,132.5 C 211.85917,143.50556 211.60605,167.67472 214.37035,179.5 C 218.81643,198.51965 223.97506,209.81545 244.49472,245.46301 C 259.78165,272.02006 263.57958,279.40571 271.51086,298 C 288.3228,337.41433 295.1937,367.03192 297.22233,408.83139 C 298.19263,428.82416 298.15041,432.29203 296.92733,433.06608 C 296.1423,433.56289 283.51242,433.97627 268.86093,433.98469 C 145.59466,434.05554 74.301143,456.37057 59.016391,499.66649 C 53.055151,516.55243 55.336882,541.5966 64.531622,560.20141 C 74.627476,580.62955 93.945713,598.48851 115,606.85747 C 128.81725,612.34975 134.89292,613.16621 166.02113,613.71377 L 194.54225,614.21546 L 255.02113,587.01056 C 288.28451,572.04787 315.90702,559.41987 316.4045,558.94834 C 317.54737,557.86506 311.20105,549.39885 303.42714,541.6361 C 290.39902,528.62669 274.77083,520.86011 255.68998,517.91266 C 237.02955,515.03016 215.91484,519.47844 177.8292,534.31574 L 166.15841,538.86242 L 149.95232,539.18121 L 133.74624,539.5 L 118.24036,523.18275 C 109.6389,514.13119 103.12756,506.49809 103.61725,506.04038 C 104.10276,505.58655 116.65,504.99527 131.5,504.72641 L 158.5,504.23758 L 165.9638,501.08734 C 176.80436,496.51188 196.17056,490.49387 208.65151,487.82221 C 223.04808,484.7405 253.70255,484.48337 266.76818,487.33472 C 303.59899,495.37242 331.61875,515.56113 352.46838,549.08318 C 359.6757,560.67111 365.24715,571.91355 364.60797,573.57923 C 364.31958,574.33076 359.78981,576.95216 354.54181,579.40457 C 349.29382,581.85697 345,584.30144 345,584.83672 C 345,585.372 347.1375,587.05359 349.75,588.57359 C 363.92642,596.82168 378.72161,610.40439 389.86277,625.39909 C 397.14795,635.20409 407.02663,652.87666 407.29533,656.58525 C 407.49113,659.28774 406.99077,659.625 395.75,664.36734 C 389.2875,667.09378 384,669.64722 384,670.04164 C 384,670.43607 388.10983,674.04058 393.13296,678.05167 C 398.15609,682.06276 405.84944,689.47582 410.2293,694.52514 C 425.25567,711.84829 440.25727,734.80198 438.42564,737.66787 C 437.91654,738.46445 429.40361,742.93394 419.50803,747.60007 C 409.61245,752.2662 401.07136,756.52864 400.52783,757.07217 C 399.87686,757.72314 401.75114,760.00068 406.0198,763.74581 C 414.762,771.41579 421.85497,778.91254 429.44071,788.5 C 439.50742,801.2231 453.49642,825.28121 452.80705,828.68515 C 452.61937,829.61186 437.3794,836.95659 413.60664,847.57734 C 392.21529,857.13417 374.45332,865.21335 374.1356,865.53107 C 372.97485,866.69182 376.55224,867.87029 384.4342,868.92365 C 395.30696,870.37671 400.0827,870.55986 416.5,870.15333 L 430.5,869.80667 L 440,864.23111 z M 345.90863,841.42001 C 375.93388,827.90101 401.08104,816.2789 401.79119,815.5931 C 402.83752,814.58265 401.58959,812.46443 395.21045,804.4231 C 382.24287,788.0766 367.63541,774 363.64002,774 C 362.60893,774 340.55562,783.5625 314.63266,795.25 L 267.5,816.5 L 235.60988,816.79039 L 203.71975,817.08077 L 204.26526,825.03963 C 205.25422,839.46822 212.61158,850.74634 225.1712,857.08642 C 237.28976,863.20385 251.63414,865.61441 277.40863,865.86485 L 291.31726,866 L 345.90863,841.42001 z M 323.75,752.38096 C 364.35546,734.28192 388,723.22953 388,722.34797 C 388,720.30979 372.62889,704.63314 365.03167,698.92308 C 361.43925,696.22303 355.54988,692.45714 351.94418,690.55445 L 345.38835,687.09502 L 293.52303,710.04751 L 241.65771,733 L 186.38787,733 C 149.69645,733 130.90495,733.34478 130.48411,734.02571 C 130.13545,734.58985 129.60407,737.43609 129.30325,740.35069 C 127.52725,757.5585 141.3207,771.24957 166.19796,776.97153 C 179.89728,780.12249 188.93196,780.71195 226,780.87327 L 259.5,781.01907 L 323.75,752.38096 z M 297,671.60037 C 330.275,656.80557 357.8822,644.36337 358.34934,643.95103 C 360.00324,642.49114 357.84565,639.13175 350.21838,631.29101 C 337.62526,618.34542 324.90982,610.02275 310.10462,605.03525 L 303.93095,602.95548 L 252.29027,626.12306 L 200.6496,649.29064 L 171.0748,648.68563 C 131.79011,647.88198 115.03475,645.47608 96.174442,637.93071 C 92.145385,636.31882 88.461083,635 87.987104,635 C 87.513125,635 85.634627,638.02682 83.812662,641.72628 C 81.04862,647.33859 80.442002,649.81306 80.149797,656.66753 C 79.842763,663.86984 80.126793,665.59854 82.453938,670.69125 C 88.244986,683.36434 100.6594,691.17118 121.87487,695.48123 C 135.08983,698.16592 148.49587,698.74942 194,698.62045 L 236.5,698.5 L 297,671.60037 z "
       style="fill:#1e6c89"
       id="path2259" />
    <path
       d="M 249,897.33242 C 230.51589,895.49717 210.80496,890.06695 200.341,883.92722 C 191.85697,878.9492 180.91937,867.7701 177.0711,860.14353 C 171.95727,850.00882 169.9076,840.36559 169.88058,826.31377 L 169.85714,814.12753 L 167.17857,813.61669 C 165.70536,813.33572 162.025,812.80442 159,812.43602 C 151.25134,811.49233 137.93071,807.49861 131.201,804.10147 C 118.82855,797.85587 109.46649,788.70675 103.98043,777.5 C 98.59847,766.50591 97.625992,761.16028 97.552777,742.16769 L 97.485962,724.83537 L 88.992981,721.54311 C 65.526057,712.44628 51.029858,697.6356 45.395653,677 C 44.158923,672.4704 43.603921,666.71076 43.564802,658 C 43.498688,643.27784 44.631044,638.66227 52.199107,622.8059 C 57.11774,612.50054 57.242551,612.02799 55.63267,609.8059 C 54.713835,608.53766 50.839023,603.4567 47.021976,598.5149 C 35.311067,583.35317 27.254277,565.78808 23.393016,547 C 20.939836,535.06334 20.910027,514.01573 23.331678,503.68947 C 31.231406,470.00391 58.389022,442.54011 102.02088,424.1131 C 138.25623,408.80984 178.24152,401.46827 231.74391,400.29507 C 249.41316,399.90762 258.29492,399.34957 258.92773,398.58708 C 261.18047,395.8727 253.14653,359.41894 244.65898,333.84302 C 236.48354,309.20763 228.46537,291.44065 212.91345,263.5 C 199.48097,239.36716 186.65719,208.91936 181.10593,187.97867 C 175.53285,166.95567 174.896,151.68199 178.64677,129 C 185.98266,84.637703 214.56441,52.854518 262.06777,36.235049 C 274.56175,31.86392 301.80305,25.382127 302.82997,26.536094 C 303.30176,27.066242 311.23459,61.025 320.4585,102 L 337.22924,176.5 L 340.81921,180.5 C 342.7937,182.7 371.28135,213.09578 404.1251,248.04618 C 436.96886,282.99658 467.6196,316.29658 472.23786,322.04618 C 476.85612,327.79578 492.89594,348.7 507.88192,368.5 C 564.00898,442.65708 569.36508,448.30737 587.71961,452.72289 C 593.30592,454.06678 603.04119,454.45494 643,454.92702 L 691.5,455.5 L 694.73619,462 C 698.99764,470.55928 705.25786,486.62802 710.12498,501.5 C 729.48774,560.66492 733.40278,622.89124 721.85882,688 C 717.55297,712.28528 706.80399,749.83595 698.24297,770.5 L 695.34291,777.5 L 644.28711,777.75902 L 593.23131,778.01804 L 580.39641,792.153 C 543.77389,832.48506 498.64575,867.18972 453.40715,889.81093 L 441.3143,895.85786 L 427.95725,896.92893 C 395.76133,899.51064 371.61349,897.37765 336.48025,888.84873 L 323.4605,885.68806 L 311.38596,891.84403 L 299.31142,898 L 275.90571,897.83996 C 263.03257,897.75194 250.925,897.52355 249,897.33242 z M 427,870.12802 C 431.49419,869.5534 434.99144,867.89584 446.12378,861.06406 C 462.82831,850.8127 486.81059,833.76787 503.21249,820.48963 C 518.78174,807.88546 554.91307,771.90285 566.46246,757.5 C 571.31385,751.45 576.36955,745.4875 577.69735,744.25 L 580.11153,742 L 626.50881,742 L 672.9061,742 L 675.97802,732.41009 C 680.25329,719.06357 685.53304,698.46343 687.87278,686 C 692.33371,662.23724 693.37859,650.36836 693.41897,623 C 693.46429,592.28418 691.72252,574.39361 685.93747,546.15366 C 682.07852,527.31605 672.93273,495.67739 670.65542,493.28742 C 669.84409,492.43595 660.41702,491.76983 639,491.05063 C 590.4001,489.41861 569.42685,486.18063 557.85543,478.52303 C 543.77021,469.20187 529.85377,453.46675 496.60242,409.26512 C 454.26221,352.9815 449.67258,347.63995 379.17191,272.59586 C 343.05236,234.14858 312.08124,201.05316 310.34721,199.05046 C 307.32253,195.55716 306.68002,193.01364 294.5353,136.4546 C 278.74731,62.928579 280.51662,69.657911 277.18655,70.470982 C 272.71233,71.56341 254.86691,80.478955 248.87355,84.616114 C 223.87423,101.87291 212,125.00751 212,156.45698 C 212,170.46456 213.89947,181.64471 218.54853,195.00112 C 223.08805,208.0428 227.03808,215.87412 243.50512,244.47994 C 258.71307,270.8985 263.47432,280.16603 271.51515,299 C 282.74231,325.2973 290.7921,353.13527 294.50381,378.5 C 296.01925,388.85605 298.33948,430.64169 297.47661,432.03785 C 297.25767,432.39209 282.09837,432.99039 263.78927,433.36741 C 229.14324,434.08082 211.81584,435.04159 189,437.51432 C 110.63452,446.0074 67.191319,468.03836 56.909896,504.5 C 54.706507,512.31401 55.224255,533.54752 57.860855,543.5 C 65.1286,570.93386 86.583201,595.38132 113.23531,606.59904 C 126.5154,612.18856 132.46283,613.06705 163.78335,614.06548 C 189.22914,614.87664 193.55376,614.79866 196.78335,613.47048 C 198.82751,612.6298 226.7125,600.14472 258.75,585.72585 C 298.36746,567.89552 316.99901,559.02836 316.99689,558.00486 C 316.9921,555.68205 305.25056,542.22641 297.68047,535.86851 C 289.49547,528.99417 278.09912,522.89651 267.97263,519.97322 C 257.33606,516.90268 238.47107,516.21202 226.5,518.45487 C 216.08191,520.40677 195.06901,527.08461 178.80847,533.61111 C 167.67561,538.07951 167.25399,538.16332 151.65815,539.00837 C 142.94513,539.48047 135.26832,539.65646 134.59857,539.39945 C 133.92882,539.14244 128.66351,533.88493 122.89789,527.71608 C 103.3702,506.8227 103.47173,506.9466 105.05671,505.94379 C 105.85052,505.44155 117.76621,505.02373 131.53603,505.01531 L 156.57206,505 L 171.53603,499.35896 C 213.83839,483.41205 247.56539,481.05426 281.42608,491.67674 C 292.05731,495.01188 307.39761,502.93555 316.87526,509.98717 C 332.7725,521.81515 350.0954,543.28321 360.56755,564.13449 C 363.0054,568.98854 365,573.21585 365,573.5285 C 365,573.84116 360.275,576.30333 354.5,579 C 348.725,581.69667 344,584.36329 344,584.92584 C 344,585.48838 345.4625,586.70142 347.25,587.62149 C 367.80531,598.20178 389.57787,621.59069 403.12686,647.64653 C 407.2739,655.62162 407.91227,657.51413 406.82023,658.59577 C 406.0941,659.31499 401,661.76123 395.5,664.03188 C 381.9127,669.64132 381.65042,669.9776 387.65151,674.09491 C 399.81597,682.44084 418.42061,703.20208 430.13235,721.5 C 437.37163,732.81034 439.46613,736.94093 438.43985,737.88334 C 437.92293,738.35801 429.04126,742.70579 418.70279,747.54506 C 408.36433,752.38434 399.62458,756.79842 399.28113,757.35413 C 398.93769,757.90984 400.19643,759.515 402.07834,760.92116 C 417.77802,772.65186 435.61208,794.82015 447.65562,817.57513 C 452.37997,826.50129 453.04443,828.371 451.88079,829.46427 C 451.12136,830.17777 433.0625,838.52602 411.75,848.01594 C 390.4375,857.50585 373,865.67363 373,866.16655 C 373,867.475 374.4729,867.8723 385,869.40339 C 395.18789,870.88515 418.00004,871.27873 427,870.12802 z M 347.27235,841.25 C 377.5042,827.6375 402.45247,815.9536 402.71294,815.28578 C 403.974,812.05252 373.84506,778.46614 365.8408,774.18239 C 363.55867,772.96103 359.88093,774.42826 315.08104,794.43281 L 266.78167,816 L 236.01328,816 C 209.89178,816 205.05699,816.22641 204.00075,817.4991 C 202.064,819.83274 204.37948,833.18542 208.01059,840.62258 C 213.56538,851.99979 225.94348,860.17075 242.51593,863.40003 C 253.47356,865.53522 255.10161,865.65787 274.90267,865.83996 L 292.30534,866 L 347.27235,841.25 z M 323.54261,752.93996 C 358.16918,737.50694 387.08723,724.30364 387.80496,723.59929 C 388.87456,722.54962 388.40806,721.43073 385.21837,717.39548 C 379.8782,710.63966 368.02876,700.24331 358.90743,694.31106 C 344.99955,685.26576 352.47788,683.49277 292.50857,710.05316 L 239.96189,733.32607 L 186.23095,732.6921 C 156.67893,732.34341 131.98407,732.38254 131.35349,732.77906 C 127.62542,735.12332 127.8224,747.59999 131.71731,755.82383 C 137.32677,767.66781 155.58519,776.85451 179.5,779.86563 C 183.35,780.35039 203.16918,780.80393 223.54261,780.8735 L 260.58522,781 L 323.54261,752.93996 z M 297.5,671.57353 C 336.11264,654.49332 359.61799,643.57485 359.8128,642.62862 C 360.30252,640.24993 340.4435,620.82301 331.79042,615.21596 C 324.09646,610.23041 311.62524,604.47505 306.13804,603.37761 C 303.80767,602.91153 293.36832,607.24184 252.86983,625.4736 L 202.5,648.14927 L 168.5,647.66437 C 129.95061,647.11459 119.59572,645.83399 101.51976,639.38087 C 87.0426,634.21252 87.232446,634.18178 83.042853,642.3721 C 79.880651,648.55395 79.526182,650.0606 79.513783,657.3721 C 79.502462,664.04845 79.961897,666.48224 82.086378,671 C 87.176263,681.82378 97.973992,689.53721 114.29816,694.01072 C 129.44276,698.16097 138.97169,698.7884 188.5,698.8965 L 235.5,698.99908 L 297.5,671.57353 z "
       style="fill:#195a72"
       id="path2257" />
    <path
       d="M 244,895.89339 C 210.56797,892.11717 187.06837,878.92796 177.37511,858.5 C 172.31818,847.84283 170.73513,840.23782 170.60992,826 L 170.5,813.5 L 165.5,812.69793 C 128.65628,806.78769 109.64799,793.72576 101.29539,768.57841 C 98.815836,761.11317 98.601331,759.13787 98.469343,742.55427 C 98.355301,728.22538 98.041682,724.45549 96.913257,723.84913 C 96.135966,723.43145 91.622642,721.5585 86.883649,719.68702 C 65.957565,711.42308 52.312207,697.2137 46.371198,677.5 C 45.037648,673.07496 44.554741,668.08759 44.531505,658.5 C 44.494937,643.41071 46.185806,636.56343 53.588187,621.82441 C 56.014684,616.99296 58,612.52958 58,611.90577 C 58,611.28196 55.814404,608.23547 53.143121,605.13579 C 24.580939,571.99303 14.363806,525.46632 28.096703,491.07959 C 44.291605,450.52807 93.403492,419.92787 162,407.6483 C 185.57143,403.42874 201.94645,401.90889 229.5,401.38328 C 257.77669,400.84387 259.52183,400.68848 260.30782,398.64023 C 260.59845,397.88286 259.72764,391.24147 258.3727,383.8816 C 250.45849,340.8926 237.24941,304.82737 215.21217,266.03883 C 198.78163,237.11885 183.5216,199.09358 178.87778,175.5 C 176.96787,165.79646 177.23593,140.99901 179.37782,129.24156 C 187.36728,85.385082 213.5142,55.315361 258.15672,38.643491 C 267.60679,35.114339 297.32289,27 300.79719,27 C 302.30464,27 304.94354,37.603293 319.50406,102.16567 L 336.4559,177.33134 L 399.97795,244.94346 C 434.91508,282.13012 467.79881,317.94307 473.05291,324.52779 C 478.30701,331.11251 495.38174,353.375 510.99677,374 C 552.21423,428.44182 562.75274,441.06605 571.86221,446.91158 C 584.29261,454.88814 593.59358,455.99358 648.30689,455.99718 L 691.11379,456 L 694.66962,463.75 C 705.05883,486.39349 714.4618,515.65424 720.06517,542.77742 C 734.60168,613.14164 727.47594,690.90408 699.82287,763.67945 L 694.76135,777 L 644.35951,777 L 593.95767,777 L 568.22884,802.8262 C 537.94537,833.22427 521.5939,846.96889 493.5,865.64131 C 478.66082,875.50407 467.95987,881.68432 452.69106,889.21017 C 441.15829,894.89457 440.60871,895.05335 429.19106,895.99952 C 397.04522,898.66341 372.14574,896.49129 335.75939,887.84894 L 323.01879,884.82284 L 311.42666,890.91142 L 299.83453,897 L 275.66726,896.87026 C 262.37527,896.79891 248.125,896.35932 244,895.89339 z M 442.41153,864.374 C 493.81632,833.12466 537.73649,795.24604 570.96968,753.5 C 574.47243,749.1 577.73436,745.05 578.21841,744.5 C 578.76976,743.87354 596.72988,743.31323 626.29926,743 L 673.5,742.5 L 676.79364,732.69278 C 683.75826,711.95474 689.78843,684.25453 693.16266,657.5 C 695.07768,642.31556 694.77983,599.67749 692.63525,582 C 689.20199,553.7002 683.20878,526.38535 675.192,502.5 L 671.5,491.5 L 652,490.77774 C 591.15339,488.52406 571.03899,485.6854 557.97567,477.50848 C 551.76589,473.62151 536.49419,458.53489 526.08064,446 C 521.28297,440.225 507.92392,422.9 496.39386,407.5 C 456.42754,354.11942 448.96187,345.41981 380.542,272.5 C 345.44999,235.1 314.8055,202.475 312.44314,200 L 308.14792,195.5 L 294.84387,133.62647 C 287.52665,99.596023 281.04287,71.073313 280.43549,70.242666 C 279.46263,68.9122 278.6269,68.995012 273.41558,70.938254 C 263.50722,74.632973 250.42212,82.019383 242.03107,88.654509 C 225.59649,101.64995 215.36043,119.26886 211.94513,140.44022 C 210.08146,151.99302 211.23872,173.27055 214.34149,184.5 C 219.50571,203.19017 222.86806,210.35314 242.57158,244.63991 C 257.95749,271.41347 262.58041,280.40837 270.50013,298.98108 C 281.83097,325.55325 290.12255,354.15162 293.46673,378.19481 C 294.83869,388.05859 295.28722,394.22734 296.51405,420.1051 L 297.06423,431.71021 L 263.78211,432.41987 C 181.03006,434.18436 133.8494,441.80152 98.48105,459.10717 C 66.871267,474.57375 52.667141,495.95488 54.374293,525.5 C 55.3434,542.27202 61.101832,559.56696 70.04489,572.56524 C 83.098452,591.53795 104.08582,606.14982 126.86089,612.12181 C 137.74998,614.9771 191.29492,616.66604 197.11386,614.33777 C 199.19541,613.50489 227.13384,600.99974 259.19925,586.54854 C 297.88212,569.115 317.60779,559.72806 317.82035,558.65228 C 318.51521,555.13538 302.10429,537.20939 291.67465,530.09279 C 285.26396,525.71849 274.01894,520.64695 266,518.51343 C 256.21678,515.91051 237.4674,515.41217 226.5,517.46356 C 215.8527,519.45507 197.36968,525.32165 180,532.22282 C 167.51663,537.18261 167.47884,537.19037 151.58859,538.05397 C 142.83732,538.52959 135.14828,538.59951 134.50185,538.20936 C 132.06863,536.74083 105.2393,507.46754 105.66895,506.75 C 105.91595,506.3375 117.47019,506 131.34505,506 L 156.57206,506 L 171.53603,500.36453 C 200.2705,489.54304 223.41853,485.19554 246,486.37921 C 289.18734,488.64299 323.65798,508.3915 348.15469,544.90447 C 357.41095,558.70118 364.35469,572.4746 362.71368,573.78332 C 362.04616,574.31568 357.31875,576.68119 352.20834,579.04002 C 345.86537,581.96775 343.00923,583.80342 343.20834,584.82439 C 343.36875,585.64698 346.58748,588.1605 350.36106,590.41 C 366.31293,599.91919 381.17461,614.43583 392.71625,631.78185 C 399.80992,642.44298 407.35212,657.04834 406.30406,658.09442 C 405.86183,658.53582 400.36096,661.06228 394.0799,663.70878 C 387.79885,666.35528 382.49147,669.02559 382.28573,669.6428 C 382.07999,670.26002 385.67661,673.7049 390.27822,677.2981 C 404.80457,688.6411 418.67792,704.91203 431.84607,726.04966 C 437.07698,734.44636 437.9556,736.45194 436.84607,737.46281 C 436.10573,738.13731 427.0625,742.65183 416.75,747.49507 C 406.4375,752.3383 398,756.82094 398,757.45649 C 398,758.09203 401.98814,762.0588 406.86254,766.27154 C 417.3775,775.35916 427.37815,786.89191 436.24498,800.15533 C 444.13402,811.95615 452.50394,827.92457 451.34916,828.97164 C 450.88212,829.39511 434.27971,836.96305 414.45491,845.78926 C 369.99586,865.58291 371,865.1017 371,866.61431 C 371,869.59506 391.66388,871.97766 413.41153,871.50448 L 431.32306,871.11476 L 442.41153,864.374 z M 348.15716,841.83127 C 385.76841,824.87963 404,816.17517 404,815.16975 C 404,813.50556 394.08535,800.20538 387.10079,792.5 C 381.22956,786.02285 368.08383,774.08255 365.44759,772.83235 C 363.77457,772.03894 354.46595,775.84622 315.08843,793.42952 L 266.78167,815 L 235.96227,815 C 200.06839,815 201.47163,814.62735 202.53319,823.87746 C 204.95471,844.9779 214.91055,856.40752 236.52522,862.90137 C 246.31462,865.84246 254.87036,866.7279 274.90716,866.8735 L 292.31432,867 L 348.15716,841.83127 z M 324.50486,753.50174 C 359.64527,737.8277 388.81436,724.58564 389.32506,724.07494 C 392.84094,720.55906 366.36406,696.06128 350.79632,688.42615 L 345.23716,685.69968 L 292.61503,709.00601 L 239.9929,732.31234 L 186.07341,731.73965 C 145.77156,731.3116 131.76572,731.46158 130.61685,732.33348 C 128.26846,734.11573 126.97937,741.61826 128.05081,747.26791 C 130.18445,758.51856 136.46542,766.174 148.32511,771.97884 C 165.2872,780.28111 176.60402,781.7632 224.0566,781.89696 L 260.6132,782 L 324.50486,753.50174 z M 297.5,672.571 C 331.6,657.48556 359.92334,644.47438 360.44077,643.65726 C 362.33737,640.66213 346.48289,624.19365 332.9459,615.0976 C 324.67341,609.53897 312.09328,603.56866 306.14736,602.37947 C 303.83087,601.91617 293.23483,606.30054 252.68308,624.5016 L 202.10787,647.20155 L 168.80394,646.73621 C 143.98409,646.38941 133.0799,645.84744 126,644.60871 C 114.04375,642.5168 103.55544,639.68004 95.964478,636.48505 C 87.473419,632.91121 86.752942,633.09638 83.260603,639.75 C 77.216413,651.26542 76.697894,661.42616 81.611954,672.05641 C 86.742429,683.15482 98.519309,691.02124 116.80761,695.56552 C 131.80641,699.29243 139.12988,699.72896 189,699.86874 L 235.5,699.99908 L 297.5,672.571 z "
       style="fill:#020202"
       id="path2255" />
  </g>
</svg>
