<?xml version="1.0" encoding="UTF-8" standalone="no"?>
<!-- Generator: Adobe Illustrator 16.2.1, SVG Export Plug-In . SVG Version: 6.00 Build 0)  -->

<svg
   xmlns:dc="http://purl.org/dc/elements/1.1/"
   xmlns:cc="http://creativecommons.org/ns#"
   xmlns:rdf="http://www.w3.org/1999/02/22-rdf-syntax-ns#"
   xmlns:svg="http://www.w3.org/2000/svg"
   xmlns="http://www.w3.org/2000/svg"
   xmlns:sodipodi="http://sodipodi.sourceforge.net/DTD/sodipodi-0.dtd"
   xmlns:inkscape="http://www.inkscape.org/namespaces/inkscape"
   version="1.1"
   id="Layer_1"
   x="0px"
   y="0px"
   width="512px"
   height="512px"
   viewBox="0 0 512 512"
   style="enable-background:new 0 0 512 512;"
   xml:space="preserve"
   inkscape:version="0.48.4 r9939"
   sodipodi:docname="volumeon.svg"><metadata
     id="metadata17"><rdf:RDF><cc:Work
         rdf:about=""><dc:format>image/svg+xml</dc:format><dc:type
           rdf:resource="http://purl.org/dc/dcmitype/StillImage" /></cc:Work></rdf:RDF></metadata><defs
     id="defs15" /><sodipodi:namedview
     pagecolor="#ffffff"
     bordercolor="#666666"
     borderopacity="1"
     objecttolerance="10"
     gridtolerance="10"
     guidetolerance="10"
     inkscape:pageopacity="0"
     inkscape:pageshadow="2"
     inkscape:window-width="640"
     inkscape:window-height="480"
     id="namedview13"
     showgrid="false"
     inkscape:zoom="0.4609375"
     inkscape:cx="256"
     inkscape:cy="256"
     inkscape:window-x="574"
     inkscape:window-y="195"
     inkscape:window-maximized="0"
     inkscape:current-layer="Layer_1" /><g
     id="g3"
     style="fill:#ffffff"><polygon
       points="231,407.8 231,104.3 136.1,192 32,192 32,320 136.1,320  "
       id="polygon5"
       style="fill:#ffffff" /><path
       d="M287.1,355.7c20.5-27.9,32.8-62.3,32.8-99.7c0-37.4-12.3-71.8-32.8-99.7l-20.4,15.3c17.4,23.6,27.8,52.7,27.8,84.4   c0,31.6-10.4,60.8-27.8,84.3L287.1,355.7z"
       id="path7"
       style="fill:#ffffff" /><path
       d="M353.7,401.7c30-40.7,48-91.1,48-145.7s-18-104.9-48-145.7l-20.4,15.3c26.9,36.4,43,81.5,43,130.4   c0,48.9-16.1,93.9-43,130.3L353.7,401.7z"
       id="path9"
       style="fill:#ffffff" /><path
       d="M396.7,79.4c36.4,49.3,57.9,110.5,57.9,176.6c0,66.1-21.5,127.2-57.9,176.6l20.5,15.4c39.4-53.6,62.8-120,62.8-192   c0-72-23.4-138.4-62.8-192L396.7,79.4z"
       id="path11"
       style="fill:#ffffff" /></g></svg>